# xmcd CD database file
#
# Track frame offsets:
#	150
#	39338
#	68679
#	99389
#	164324
#
# Disc length: 2625 seconds
#
# Revision: 0
# Processed by: cddbd v1.5.2PL0 Copyright (c) Steve Scherf et al.
# Submitted via: CDex 1.70beta2
#
DISCID=330a3f05
DTITLE=Chrles Lloyd - The Flowering
DYEAR=1966
DGENRE=Jazz
TTITLE0=Speak Low
TTITLE1=Love-In/Island Blues
TTITLE2=Wilpan's
TTITLE3=Gypsy '66
TTITLE4=Goin' To Memphis/Island Blues
EXTD=YEAR: 1966
EXTT0=
EXTT1=
EXTT2=
EXTT3=
EXTT4=
PLAYORDER=
